<svg xmlns="http://www.w3.org/2000/svg" viewBox="0 0 1140 532" font-family="system-ui, -apple-system, Segoe UI, sans-serif" font-size="12" role="img" aria-label="Paired contrasts against the practical equivalence region">
<rect width="1140" height="532" fill="#fcfcfb"/>
<text x="44.0" y="40.0" text-anchor="start" fill="#0b0b0b" font-size="14" font-weight="600">Paired difference in NLL-regret AUC, with 95% intervals</text>
<text x="44.0" y="62.0" text-anchor="start" fill="#52514e" font-size="11" font-weight="normal">Each row is one policy minus another, paired by seed over five chains. Negative favours the first policy.</text>
<text x="44.0" y="80.0" text-anchor="start" fill="#52514e" font-size="11" font-weight="normal">The shaded band is the preregistered practical-equivalence region, ±0.0507 AUC units. An interval lying wholly inside it means the two policies are equivalent at this operating point.</text>
<rect x="756.5" y="170.0" width="92.9" height="244.0" fill="#1baf7a" fill-opacity="0.12" stroke="#1baf7a" stroke-opacity="0.35"/>
<text x="803.0" y="160.0" text-anchor="middle" fill="#0f7a55" font-size="11" font-weight="600">practical equivalence</text>
<line x1="803.0" y1="170.0" x2="803.0" y2="414.0" stroke="#52514e" stroke-width="1.4" stroke-dasharray="4 3"/>
<text x="44.0" y="150.0" text-anchor="start" fill="#52514e" font-size="11" font-weight="600">Contrast</text>
<text x="470.0" y="150.0" text-anchor="end" fill="#52514e" font-size="11" font-weight="600">Difference  [95% interval]</text>
<line x1="44.0" y1="108.0" x2="68.0" y2="108.0" stroke="#eda100" stroke-width="2.5" stroke-linecap="round"/>
<text x="76.0" y="112.0" text-anchor="start" fill="#52514e" font-size="12" font-weight="normal">Joint time-and-mode</text>
<line x1="221.4" y1="108.0" x2="245.4" y2="108.0" stroke="#eb6834" stroke-width="2.5" stroke-linecap="round"/>
<text x="253.4" y="112.0" text-anchor="start" fill="#52514e" font-size="12" font-weight="normal">Schedule-only</text>
<line x1="359.2" y1="108.0" x2="383.2" y2="108.0" stroke="#1baf7a" stroke-width="2.5" stroke-linecap="round"/>
<text x="391.2" y="112.0" text-anchor="start" fill="#52514e" font-size="12" font-weight="normal">Selection-only</text>
<line x1="503.6" y1="108.0" x2="527.6" y2="108.0" stroke="#2a78d6" stroke-width="2.5" stroke-linecap="round"/>
<text x="535.6" y="112.0" text-anchor="start" fill="#52514e" font-size="12" font-weight="normal">Fresh random</text>
<text x="44.0" y="200.0" text-anchor="start" fill="#0b0b0b" font-size="12" font-weight="700">Joint − Selection (primary)</text>
<text x="470.0" y="200.0" text-anchor="end" fill="#52514e" font-size="11" font-weight="normal">+0.0103  [-0.0092, +0.0297]</text>
<line x1="794.6" y1="196.0" x2="830.2" y2="196.0" stroke="#eda100" stroke-width="2.5" stroke-linecap="round"/>
<line x1="794.6" y1="190.0" x2="794.6" y2="202.0" stroke="#eda100" stroke-width="2"/>
<line x1="830.2" y1="190.0" x2="830.2" y2="202.0" stroke="#eda100" stroke-width="2"/>
<circle cx="812.4" cy="196.0" r="5.5" fill="#eda100" stroke="#fcfcfb" stroke-width="2"><title>Joint − Selection: +0.0103</title></circle>
<text x="44.0" y="248.0" text-anchor="start" fill="#0b0b0b" font-size="12" font-weight="normal">Joint − Schedule</text>
<text x="470.0" y="248.0" text-anchor="end" fill="#52514e" font-size="11" font-weight="normal">-0.2227  [-0.2583, -0.1871]</text>
<line x1="566.5" y1="244.0" x2="631.6" y2="244.0" stroke="#eda100" stroke-width="2.5" stroke-linecap="round"/>
<line x1="566.5" y1="238.0" x2="566.5" y2="250.0" stroke="#eda100" stroke-width="2"/>
<line x1="631.6" y1="238.0" x2="631.6" y2="250.0" stroke="#eda100" stroke-width="2"/>
<circle cx="599.0" cy="244.0" r="5.5" fill="#eda100" stroke="#fcfcfb" stroke-width="2"><title>Joint − Schedule: -0.2227</title></circle>
<text x="44.0" y="296.0" text-anchor="start" fill="#0b0b0b" font-size="12" font-weight="normal">Schedule − Random</text>
<text x="470.0" y="296.0" text-anchor="end" fill="#52514e" font-size="11" font-weight="normal">-0.0103  [-0.0363, +0.0157]</text>
<line x1="769.7" y1="292.0" x2="817.4" y2="292.0" stroke="#eb6834" stroke-width="2.5" stroke-linecap="round"/>
<line x1="769.7" y1="286.0" x2="769.7" y2="298.0" stroke="#eb6834" stroke-width="2"/>
<line x1="817.4" y1="286.0" x2="817.4" y2="298.0" stroke="#eb6834" stroke-width="2"/>
<circle cx="793.5" cy="292.0" r="5.5" fill="#eb6834" stroke="#fcfcfb" stroke-width="2"><title>Schedule − Random: -0.0103</title></circle>
<text x="44.0" y="344.0" text-anchor="start" fill="#0b0b0b" font-size="12" font-weight="normal">Selection − Random</text>
<text x="470.0" y="344.0" text-anchor="end" fill="#52514e" font-size="11" font-weight="normal">-0.2433  [-0.2687, -0.2179]</text>
<line x1="556.9" y1="340.0" x2="603.5" y2="340.0" stroke="#1baf7a" stroke-width="2.5" stroke-linecap="round"/>
<line x1="556.9" y1="334.0" x2="556.9" y2="346.0" stroke="#1baf7a" stroke-width="2"/>
<line x1="603.5" y1="334.0" x2="603.5" y2="346.0" stroke="#1baf7a" stroke-width="2"/>
<circle cx="580.2" cy="340.0" r="5.5" fill="#1baf7a" stroke="#fcfcfb" stroke-width="2"><title>Selection − Random: -0.2433</title></circle>
<text x="44.0" y="392.0" text-anchor="start" fill="#0b0b0b" font-size="12" font-weight="normal">Random − Control</text>
<text x="470.0" y="392.0" text-anchor="end" fill="#52514e" font-size="11" font-weight="normal">-0.1067  [-0.1214, -0.0920]</text>
<line x1="691.8" y1="388.0" x2="718.8" y2="388.0" stroke="#2a78d6" stroke-width="2.5" stroke-linecap="round"/>
<line x1="691.8" y1="382.0" x2="691.8" y2="394.0" stroke="#2a78d6" stroke-width="2"/>
<line x1="718.8" y1="382.0" x2="718.8" y2="394.0" stroke="#2a78d6" stroke-width="2"/>
<circle cx="705.3" cy="388.0" r="5.5" fill="#2a78d6" stroke="#fcfcfb" stroke-width="2"><title>Random − Control: -0.1067</title></circle>
<line x1="520.0" y1="436.0" x2="1086.0" y2="436.0" stroke="#e5e4e0"/>
<line x1="528.3" y1="436.0" x2="528.3" y2="441.0" stroke="#e5e4e0"/>
<text x="528.3" y="456.0" text-anchor="middle" fill="#52514e" font-size="11" font-weight="normal">-0.30</text>
<line x1="619.8" y1="436.0" x2="619.8" y2="441.0" stroke="#e5e4e0"/>
<text x="619.8" y="456.0" text-anchor="middle" fill="#52514e" font-size="11" font-weight="normal">-0.20</text>
<line x1="711.4" y1="436.0" x2="711.4" y2="441.0" stroke="#e5e4e0"/>
<text x="711.4" y="456.0" text-anchor="middle" fill="#52514e" font-size="11" font-weight="normal">-0.10</text>
<line x1="803.0" y1="436.0" x2="803.0" y2="441.0" stroke="#e5e4e0"/>
<text x="803.0" y="456.0" text-anchor="middle" fill="#52514e" font-size="11" font-weight="normal">0.00</text>
<line x1="894.6" y1="436.0" x2="894.6" y2="441.0" stroke="#e5e4e0"/>
<text x="894.6" y="456.0" text-anchor="middle" fill="#52514e" font-size="11" font-weight="normal">+0.10</text>
<line x1="986.2" y1="436.0" x2="986.2" y2="441.0" stroke="#e5e4e0"/>
<text x="986.2" y="456.0" text-anchor="middle" fill="#52514e" font-size="11" font-weight="normal">+0.20</text>
<line x1="1077.7" y1="436.0" x2="1077.7" y2="441.0" stroke="#e5e4e0"/>
<text x="1077.7" y="456.0" text-anchor="middle" fill="#52514e" font-size="11" font-weight="normal">+0.30</text>
<text x="803.0" y="480.0" text-anchor="middle" fill="#52514e" font-size="12" font-weight="normal">Difference in NLL-regret AUC (nats × generations)</text>
</svg>
