<svg xmlns="http://www.w3.org/2000/svg" viewBox="0 0 1200 500" font-family="system-ui, -apple-system, Segoe UI, sans-serif" font-size="12" role="img" aria-label="All twenty-five chains, three views">
<rect width="1200" height="500" fill="#fcfcfb"/>
<text x="58.0" y="34.0" text-anchor="start" fill="#0b0b0b" font-size="14" font-weight="600">Every chain in the grid</text>
<text x="58.0" y="54.0" text-anchor="start" fill="#52514e" font-size="11" font-weight="normal">Five policies x five frozen seeds. Nothing here is averaged except where a mean is drawn as a rule.</text>
<line x1="58.0" y1="82.0" x2="82.0" y2="82.0" stroke="#52514e" stroke-width="2.5" stroke-dasharray="7 4" stroke-linecap="round"/>
<text x="90.0" y="86.0" text-anchor="start" fill="#52514e" font-size="12" font-weight="normal">No rescue (control) — reference</text>
<line x1="314.6" y1="82.0" x2="338.6" y2="82.0" stroke="#2a78d6" stroke-width="2.5" stroke-linecap="round"/>
<text x="346.6" y="86.0" text-anchor="start" fill="#52514e" font-size="12" font-weight="normal">Fresh random</text>
<line x1="445.8" y1="82.0" x2="469.8" y2="82.0" stroke="#eb6834" stroke-width="2.5" stroke-linecap="round"/>
<text x="477.8" y="86.0" text-anchor="start" fill="#52514e" font-size="12" font-weight="normal">Schedule-only</text>
<line x1="583.6" y1="82.0" x2="607.6" y2="82.0" stroke="#1baf7a" stroke-width="2.5" stroke-linecap="round"/>
<text x="615.6" y="86.0" text-anchor="start" fill="#52514e" font-size="12" font-weight="normal">Selection-only</text>
<line x1="728.0" y1="82.0" x2="752.0" y2="82.0" stroke="#eda100" stroke-width="2.5" stroke-linecap="round"/>
<text x="760.0" y="86.0" text-anchor="start" fill="#52514e" font-size="12" font-weight="normal">Joint time-and-mode</text>
<text x="58.0" y="118.0" text-anchor="start" fill="#0b0b0b" font-size="12" font-weight="600">a. Every chain's NLL trajectory ↓</text>
<line x1="58.0" y1="336.3" x2="375.3" y2="336.3" stroke="#e5e4e0"/>
<text x="49.0" y="340.3" text-anchor="end" fill="#52514e" font-size="11" font-weight="normal">3.20</text>
<line x1="58.0" y1="296.7" x2="375.3" y2="296.7" stroke="#e5e4e0"/>
<text x="49.0" y="300.7" text-anchor="end" fill="#52514e" font-size="11" font-weight="normal">3.30</text>
<line x1="58.0" y1="257.2" x2="375.3" y2="257.2" stroke="#e5e4e0"/>
<text x="49.0" y="261.2" text-anchor="end" fill="#52514e" font-size="11" font-weight="normal">3.40</text>
<line x1="58.0" y1="217.7" x2="375.3" y2="217.7" stroke="#e5e4e0"/>
<text x="49.0" y="221.7" text-anchor="end" fill="#52514e" font-size="11" font-weight="normal">3.50</text>
<line x1="58.0" y1="178.2" x2="375.3" y2="178.2" stroke="#e5e4e0"/>
<text x="49.0" y="182.2" text-anchor="end" fill="#52514e" font-size="11" font-weight="normal">3.60</text>
<line x1="58.0" y1="138.7" x2="375.3" y2="138.7" stroke="#e5e4e0"/>
<text x="49.0" y="142.7" text-anchor="end" fill="#52514e" font-size="11" font-weight="normal">3.70</text>
<text x="58.0" y="386.0" text-anchor="middle" fill="#52514e" font-size="11" font-weight="normal">0</text>
<text x="128.5" y="386.0" text-anchor="middle" fill="#52514e" font-size="11" font-weight="normal">2</text>
<text x="199.0" y="386.0" text-anchor="middle" fill="#52514e" font-size="11" font-weight="normal">4</text>
<text x="269.6" y="386.0" text-anchor="middle" fill="#52514e" font-size="11" font-weight="normal">6</text>
<text x="340.1" y="386.0" text-anchor="middle" fill="#52514e" font-size="11" font-weight="normal">8</text>
<text x="216.7" y="406.0" text-anchor="middle" fill="#52514e" font-size="12" font-weight="normal">Generation</text>
<polyline points="58.0,344.6 93.3,296.7 128.5,268.9 163.8,247.4 199.0,229.6 234.3,212.9 269.6,196.7 304.8,182.4 340.1,168.1 375.3,155.7" fill="none" stroke="#52514e" stroke-width="1.4" stroke-opacity="0.85" stroke-dasharray="5 3"><title>Control seed 101</title></polyline>
<polyline points="58.0,344.3 93.3,298.2 128.5,270.4 163.8,248.3 199.0,229.3 234.3,213.5 269.6,198.3 304.8,184.3 340.1,170.6 375.3,156.8" fill="none" stroke="#52514e" stroke-width="1.4" stroke-opacity="0.85" stroke-dasharray="5 3"><title>Control seed 202</title></polyline>
<polyline points="58.0,344.1 93.3,298.8 128.5,269.4 163.8,247.5 199.0,228.3 234.3,210.8 269.6,196.3 304.8,180.4 340.1,167.3 375.3,154.8" fill="none" stroke="#52514e" stroke-width="1.4" stroke-opacity="0.85" stroke-dasharray="5 3"><title>Control seed 303</title></polyline>
<polyline points="58.0,344.9 93.3,298.6 128.5,269.4 163.8,247.5 199.0,229.3 234.3,213.0 269.6,197.2 304.8,184.3 340.1,169.8 375.3,158.0" fill="none" stroke="#52514e" stroke-width="1.4" stroke-opacity="0.85" stroke-dasharray="5 3"><title>Control seed 404</title></polyline>
<polyline points="58.0,345.1 93.3,298.3 128.5,270.1 163.8,248.3 199.0,229.7 234.3,212.9 269.6,198.2 304.8,182.4 340.1,169.6 375.3,155.1" fill="none" stroke="#52514e" stroke-width="1.4" stroke-opacity="0.85" stroke-dasharray="5 3"><title>Control seed 505</title></polyline>
<polyline points="58.0,344.6 93.3,298.1 128.5,270.3 163.8,249.5 199.0,234.4 234.3,217.5 269.6,203.4 304.8,187.4 340.1,176.7 375.3,171.9" fill="none" stroke="#2a78d6" stroke-width="1.4" stroke-opacity="0.85"><title>Random seed 101</title></polyline>
<polyline points="58.0,344.3 93.3,300.1 128.5,271.3 163.8,250.3 199.0,232.7 234.3,217.4 269.6,202.9 304.8,188.7 340.1,178.1 375.3,173.6" fill="none" stroke="#2a78d6" stroke-width="1.4" stroke-opacity="0.85"><title>Random seed 202</title></polyline>
<polyline points="58.0,344.1 93.3,298.8 128.5,271.3 163.8,250.9 199.0,232.9 234.3,217.8 269.6,201.6 304.8,189.3 340.1,177.6 375.3,170.4" fill="none" stroke="#2a78d6" stroke-width="1.4" stroke-opacity="0.85"><title>Random seed 303</title></polyline>
<polyline points="58.0,344.9 93.3,299.0 128.5,271.5 163.8,251.2 199.0,233.6 234.3,216.4 269.6,204.5 304.8,191.1 340.1,176.8 375.3,168.0" fill="none" stroke="#2a78d6" stroke-width="1.4" stroke-opacity="0.85"><title>Random seed 404</title></polyline>
<polyline points="58.0,345.1 93.3,298.7 128.5,272.9 163.8,252.3 199.0,233.9 234.3,218.4 269.6,203.1 304.8,189.2 340.1,177.0 375.3,167.5" fill="none" stroke="#2a78d6" stroke-width="1.4" stroke-opacity="0.85"><title>Random seed 505</title></polyline>
<polyline points="58.0,344.6 93.3,298.2 128.5,270.5 163.8,247.5 199.0,229.6 234.3,216.2 269.6,206.9 304.8,193.5 340.1,183.0 375.3,181.9" fill="none" stroke="#eb6834" stroke-width="1.4" stroke-opacity="0.85"><title>Schedule seed 101</title></polyline>
<polyline points="58.0,344.3 93.3,298.7 128.5,269.5 163.8,247.7 199.0,229.3 234.3,213.8 269.6,205.4 304.8,194.5 340.1,184.0 375.3,184.6" fill="none" stroke="#eb6834" stroke-width="1.4" stroke-opacity="0.85"><title>Schedule seed 202</title></polyline>
<polyline points="58.0,344.1 93.3,298.5 128.5,269.4 163.8,246.1 199.0,228.2 234.3,212.0 269.6,200.9 304.8,190.8 340.1,183.2 375.3,182.5" fill="none" stroke="#eb6834" stroke-width="1.4" stroke-opacity="0.85"><title>Schedule seed 303</title></polyline>
<polyline points="58.0,344.9 93.3,297.4 128.5,270.1 163.8,248.1 199.0,229.2 234.3,213.9 269.6,206.5 304.8,196.6 340.1,184.5 375.3,182.7" fill="none" stroke="#eb6834" stroke-width="1.4" stroke-opacity="0.85"><title>Schedule seed 404</title></polyline>
<polyline points="58.0,345.1 93.3,298.2 128.5,270.3 163.8,249.2 199.0,230.4 234.3,212.7 269.6,203.3 304.8,191.8 340.1,180.9 375.3,176.5" fill="none" stroke="#eb6834" stroke-width="1.4" stroke-opacity="0.85"><title>Schedule seed 505</title></polyline>
<polyline points="58.0,344.6 93.3,300.5 128.5,275.3 163.8,256.6 199.0,242.1 234.3,229.0 269.6,216.8 304.8,204.9 340.1,195.1 375.3,200.2" fill="none" stroke="#1baf7a" stroke-width="1.4" stroke-opacity="0.85"><title>Selection seed 101</title></polyline>
<polyline points="58.0,344.3 93.3,301.4 128.5,275.1 163.8,256.6 199.0,243.7 234.3,231.8 269.6,219.9 304.8,208.8 340.1,199.4 375.3,201.6" fill="none" stroke="#1baf7a" stroke-width="1.4" stroke-opacity="0.85"><title>Selection seed 202</title></polyline>
<polyline points="58.0,344.1 93.3,300.6 128.5,274.9 163.8,255.7 199.0,239.7 234.3,226.9 269.6,215.9 304.8,206.0 340.1,197.2 375.3,199.6" fill="none" stroke="#1baf7a" stroke-width="1.4" stroke-opacity="0.85"><title>Selection seed 303</title></polyline>
<polyline points="58.0,344.9 93.3,300.4 128.5,274.4 163.8,255.4 199.0,240.2 234.3,228.0 269.6,216.3 304.8,205.9 340.1,195.6 375.3,199.3" fill="none" stroke="#1baf7a" stroke-width="1.4" stroke-opacity="0.85"><title>Selection seed 404</title></polyline>
<polyline points="58.0,345.2 93.3,300.9 128.5,275.2 163.8,256.8 199.0,241.9 234.3,227.4 269.6,218.4 304.8,206.2 340.1,197.8 375.3,201.8" fill="none" stroke="#1baf7a" stroke-width="1.4" stroke-opacity="0.85"><title>Selection seed 505</title></polyline>
<polyline points="58.0,344.6 93.3,299.6 128.5,273.4 163.8,254.8 199.0,240.9 234.3,227.6 269.6,214.8 304.8,204.0 340.1,194.0 375.3,201.1" fill="none" stroke="#eda100" stroke-width="1.4" stroke-opacity="0.85"><title>Joint seed 101</title></polyline>
<polyline points="58.0,344.3 93.3,300.5 128.5,275.2 163.8,257.0 199.0,241.7 234.3,230.5 269.6,217.4 304.8,206.5 340.1,199.0 375.3,201.7" fill="none" stroke="#eda100" stroke-width="1.4" stroke-opacity="0.85"><title>Joint seed 202</title></polyline>
<polyline points="58.0,343.9 93.3,301.8 128.5,275.2 163.8,256.2 199.0,240.6 234.3,227.0 269.6,215.5 304.8,206.3 340.1,197.1 375.3,198.7" fill="none" stroke="#eda100" stroke-width="1.4" stroke-opacity="0.85"><title>Joint seed 303</title></polyline>
<polyline points="58.0,344.9 93.3,300.4 128.5,276.0 163.8,257.2 199.0,240.3 234.3,227.9 269.6,215.3 304.8,204.2 340.1,195.8 375.3,198.7" fill="none" stroke="#eda100" stroke-width="1.4" stroke-opacity="0.85"><title>Joint seed 404</title></polyline>
<polyline points="58.0,345.1 93.3,300.6 128.5,274.1 163.8,255.7 199.0,241.1 234.3,227.2 269.6,216.8 304.8,206.3 340.1,197.9 375.3,200.7" fill="none" stroke="#eda100" stroke-width="1.4" stroke-opacity="0.85"><title>Joint seed 505</title></polyline>
<text x="441.3" y="118.0" text-anchor="start" fill="#0b0b0b" font-size="12" font-weight="600">b. Paired difference at each seed ↓</text>
<line x1="441.3" y1="360.2" x2="758.7" y2="360.2" stroke="#e5e4e0"/>
<text x="432.3" y="364.2" text-anchor="end" fill="#52514e" font-size="11" font-weight="normal">-0.30</text>
<line x1="441.3" y1="297.4" x2="758.7" y2="297.4" stroke="#e5e4e0"/>
<text x="432.3" y="301.4" text-anchor="end" fill="#52514e" font-size="11" font-weight="normal">-0.20</text>
<line x1="441.3" y1="234.5" x2="758.7" y2="234.5" stroke="#e5e4e0"/>
<text x="432.3" y="238.5" text-anchor="end" fill="#52514e" font-size="11" font-weight="normal">-0.10</text>
<line x1="441.3" y1="171.7" x2="758.7" y2="171.7" stroke="#e5e4e0"/>
<text x="432.3" y="175.7" text-anchor="end" fill="#52514e" font-size="11" font-weight="normal">0.00</text>
<text x="473.1" y="386.0" text-anchor="middle" fill="#52514e" font-size="11" font-weight="normal">Joint</text>
<text x="473.1" y="400.0" text-anchor="middle" fill="#52514e" font-size="11" font-weight="normal">− Sel</text>
<text x="536.5" y="386.0" text-anchor="middle" fill="#52514e" font-size="11" font-weight="normal">Joint</text>
<text x="536.5" y="400.0" text-anchor="middle" fill="#52514e" font-size="11" font-weight="normal">− Sched</text>
<text x="600.0" y="386.0" text-anchor="middle" fill="#52514e" font-size="11" font-weight="normal">Sched</text>
<text x="600.0" y="400.0" text-anchor="middle" fill="#52514e" font-size="11" font-weight="normal">− Rand</text>
<text x="663.5" y="386.0" text-anchor="middle" fill="#52514e" font-size="11" font-weight="normal">Sel</text>
<text x="663.5" y="400.0" text-anchor="middle" fill="#52514e" font-size="11" font-weight="normal">− Rand</text>
<text x="726.9" y="386.0" text-anchor="middle" fill="#52514e" font-size="11" font-weight="normal">Rand</text>
<text x="726.9" y="400.0" text-anchor="middle" fill="#52514e" font-size="11" font-weight="normal">− Ctrl</text>
<text x="600.0" y="420.0" text-anchor="middle" fill="#52514e" font-size="12" font-weight="normal">Contrast (first policy minus second)</text>
<line x1="441.3" y1="171.7" x2="758.7" y2="171.7" stroke="#52514e" stroke-width="1.2" stroke-dasharray="4 3"/>
<line x1="453.1" y1="165.3" x2="493.1" y2="165.3" stroke="#eda100" stroke-width="2.5"/>
<circle cx="459.1" cy="178.1" r="3.6" fill="#eda100" fill-opacity="0.9" stroke="#fcfcfb" stroke-width="1.5"><title>Joint−Sel: -0.0102</title></circle>
<circle cx="466.1" cy="172.4" r="3.6" fill="#eda100" fill-opacity="0.9" stroke="#fcfcfb" stroke-width="1.5"><title>Joint−Sel: -0.0010</title></circle>
<circle cx="473.1" cy="163.4" r="3.6" fill="#eda100" fill-opacity="0.9" stroke="#fcfcfb" stroke-width="1.5"><title>Joint−Sel: +0.0133</title></circle>
<circle cx="480.1" cy="157.7" r="3.6" fill="#eda100" fill-opacity="0.9" stroke="#fcfcfb" stroke-width="1.5"><title>Joint−Sel: +0.0224</title></circle>
<circle cx="487.1" cy="154.8" r="3.6" fill="#eda100" fill-opacity="0.9" stroke="#fcfcfb" stroke-width="1.5"><title>Joint−Sel: +0.0269</title></circle>
<line x1="516.5" y1="311.6" x2="556.5" y2="311.6" stroke="#eda100" stroke-width="2.5"/>
<circle cx="522.5" cy="331.2" r="3.6" fill="#eda100" fill-opacity="0.9" stroke="#fcfcfb" stroke-width="1.5"><title>Joint−Sched: -0.2539</title></circle>
<circle cx="529.5" cy="322.2" r="3.6" fill="#eda100" fill-opacity="0.9" stroke="#fcfcfb" stroke-width="1.5"><title>Joint−Sched: -0.2395</title></circle>
<circle cx="536.5" cy="319.1" r="3.6" fill="#eda100" fill-opacity="0.9" stroke="#fcfcfb" stroke-width="1.5"><title>Joint−Sched: -0.2346</title></circle>
<circle cx="543.5" cy="297.0" r="3.6" fill="#eda100" fill-opacity="0.9" stroke="#fcfcfb" stroke-width="1.5"><title>Joint−Sched: -0.1994</title></circle>
<circle cx="550.5" cy="288.6" r="3.6" fill="#eda100" fill-opacity="0.9" stroke="#fcfcfb" stroke-width="1.5"><title>Joint−Sched: -0.1860</title></circle>
<line x1="580.0" y1="178.2" x2="620.0" y2="178.2" stroke="#eb6834" stroke-width="2.5"/>
<circle cx="586.0" cy="192.2" r="3.6" fill="#eb6834" fill-opacity="0.9" stroke="#fcfcfb" stroke-width="1.5"><title>Sched−Rand: -0.0326</title></circle>
<circle cx="593.0" cy="186.8" r="3.6" fill="#eb6834" fill-opacity="0.9" stroke="#fcfcfb" stroke-width="1.5"><title>Sched−Rand: -0.0239</title></circle>
<circle cx="600.0" cy="183.7" r="3.6" fill="#eb6834" fill-opacity="0.9" stroke="#fcfcfb" stroke-width="1.5"><title>Sched−Rand: -0.0190</title></circle>
<circle cx="607.0" cy="164.8" r="3.6" fill="#eb6834" fill-opacity="0.9" stroke="#fcfcfb" stroke-width="1.5"><title>Sched−Rand: +0.0111</title></circle>
<circle cx="614.0" cy="163.6" r="3.6" fill="#eb6834" fill-opacity="0.9" stroke="#fcfcfb" stroke-width="1.5"><title>Sched−Rand: +0.0129</title></circle>
<line x1="643.5" y1="324.6" x2="683.5" y2="324.6" stroke="#1baf7a" stroke-width="2.5"/>
<circle cx="649.5" cy="345.2" r="3.6" fill="#1baf7a" fill-opacity="0.9" stroke="#fcfcfb" stroke-width="1.5"><title>Sel−Rand: -0.2761</title></circle>
<circle cx="656.5" cy="326.0" r="3.6" fill="#1baf7a" fill-opacity="0.9" stroke="#fcfcfb" stroke-width="1.5"><title>Sel−Rand: -0.2455</title></circle>
<circle cx="663.5" cy="323.6" r="3.6" fill="#1baf7a" fill-opacity="0.9" stroke="#fcfcfb" stroke-width="1.5"><title>Sel−Rand: -0.2417</title></circle>
<circle cx="670.5" cy="316.7" r="3.6" fill="#1baf7a" fill-opacity="0.9" stroke="#fcfcfb" stroke-width="1.5"><title>Sel−Rand: -0.2309</title></circle>
<circle cx="677.5" cy="311.4" r="3.6" fill="#1baf7a" fill-opacity="0.9" stroke="#fcfcfb" stroke-width="1.5"><title>Sel−Rand: -0.2223</title></circle>
<line x1="706.9" y1="238.8" x2="746.9" y2="238.8" stroke="#2a78d6" stroke-width="2.5"/>
<circle cx="712.9" cy="250.3" r="3.6" fill="#2a78d6" fill-opacity="0.9" stroke="#fcfcfb" stroke-width="1.5"><title>Rand−Ctrl: -0.1251</title></circle>
<circle cx="719.9" cy="239.4" r="3.6" fill="#2a78d6" fill-opacity="0.9" stroke="#fcfcfb" stroke-width="1.5"><title>Rand−Ctrl: -0.1077</title></circle>
<circle cx="726.9" cy="238.8" r="3.6" fill="#2a78d6" fill-opacity="0.9" stroke="#fcfcfb" stroke-width="1.5"><title>Rand−Ctrl: -0.1068</title></circle>
<circle cx="733.9" cy="235.1" r="3.6" fill="#2a78d6" fill-opacity="0.9" stroke="#fcfcfb" stroke-width="1.5"><title>Rand−Ctrl: -0.1009</title></circle>
<circle cx="740.9" cy="230.1" r="3.6" fill="#2a78d6" fill-opacity="0.9" stroke="#fcfcfb" stroke-width="1.5"><title>Rand−Ctrl: -0.0929</title></circle>
<text x="824.7" y="118.0" text-anchor="start" fill="#0b0b0b" font-size="12" font-weight="600">c. Both outcomes, per chain</text>
<line x1="824.7" y1="327.5" x2="1142.0" y2="327.5" stroke="#e5e4e0"/>
<text x="815.7" y="331.5" text-anchor="end" fill="#52514e" font-size="11" font-weight="normal">0.870</text>
<line x1="824.7" y1="276.5" x2="1142.0" y2="276.5" stroke="#e5e4e0"/>
<text x="815.7" y="280.5" text-anchor="end" fill="#52514e" font-size="11" font-weight="normal">0.880</text>
<line x1="824.7" y1="225.4" x2="1142.0" y2="225.4" stroke="#e5e4e0"/>
<text x="815.7" y="229.4" text-anchor="end" fill="#52514e" font-size="11" font-weight="normal">0.890</text>
<line x1="824.7" y1="174.4" x2="1142.0" y2="174.4" stroke="#e5e4e0"/>
<text x="815.7" y="178.4" text-anchor="end" fill="#52514e" font-size="11" font-weight="normal">0.900</text>
<text x="886.6" y="386.0" text-anchor="middle" fill="#52514e" font-size="11" font-weight="normal">2.3</text>
<text x="950.0" y="386.0" text-anchor="middle" fill="#52514e" font-size="11" font-weight="normal">2.4</text>
<text x="1013.5" y="386.0" text-anchor="middle" fill="#52514e" font-size="11" font-weight="normal">2.5</text>
<text x="1076.9" y="386.0" text-anchor="middle" fill="#52514e" font-size="11" font-weight="normal">2.6</text>
<text x="1140.4" y="386.0" text-anchor="middle" fill="#52514e" font-size="11" font-weight="normal">2.7</text>
<text x="983.3" y="406.0" text-anchor="middle" fill="#52514e" font-size="12" font-weight="normal">NLL-regret AUC ↓   (tail retention ↑ on y)</text>
<circle cx="1110.7" cy="337.4" r="4.5" fill="#52514e" fill-opacity="0.85" stroke="#fcfcfb" stroke-width="1.6"><title>Control seed 101: AUC 2.6532, tail 0.8681</title></circle>
<circle cx="1089.5" cy="338.9" r="4.5" fill="#52514e" fill-opacity="0.85" stroke="#fcfcfb" stroke-width="1.6"><title>Control seed 202: AUC 2.6199, tail 0.8678</title></circle>
<circle cx="1111.3" cy="341.8" r="4.5" fill="#52514e" fill-opacity="0.85" stroke="#fcfcfb" stroke-width="1.6"><title>Control seed 303: AUC 2.6541, tail 0.8672</title></circle>
<circle cx="1103.1" cy="335.5" r="4.5" fill="#52514e" fill-opacity="0.85" stroke="#fcfcfb" stroke-width="1.6"><title>Control seed 404: AUC 2.6412, tail 0.8684</title></circle>
<circle cx="1107.0" cy="345.2" r="4.5" fill="#52514e" fill-opacity="0.85" stroke="#fcfcfb" stroke-width="1.6"><title>Control seed 505: AUC 2.6474, tail 0.8665</title></circle>
<circle cx="1042.3" cy="280.9" r="4.5" fill="#2a78d6" fill-opacity="0.85" stroke="#fcfcfb" stroke-width="1.6"><title>Random seed 101: AUC 2.5454, tail 0.8791</title></circle>
<circle cx="1030.6" cy="284.6" r="4.5" fill="#2a78d6" fill-opacity="0.85" stroke="#fcfcfb" stroke-width="1.6"><title>Random seed 202: AUC 2.5270, tail 0.8784</title></circle>
<circle cx="1031.9" cy="285.3" r="4.5" fill="#2a78d6" fill-opacity="0.85" stroke="#fcfcfb" stroke-width="1.6"><title>Random seed 303: AUC 2.5290, tail 0.8783</title></circle>
<circle cx="1039.0" cy="304.7" r="4.5" fill="#2a78d6" fill-opacity="0.85" stroke="#fcfcfb" stroke-width="1.6"><title>Random seed 404: AUC 2.5402, tail 0.8745</title></circle>
<circle cx="1039.2" cy="305.4" r="4.5" fill="#2a78d6" fill-opacity="0.85" stroke="#fcfcfb" stroke-width="1.6"><title>Random seed 505: AUC 2.5406, tail 0.8743</title></circle>
<circle cx="1021.6" cy="247.8" r="4.5" fill="#eb6834" fill-opacity="0.85" stroke="#fcfcfb" stroke-width="1.6"><title>Schedule seed 101: AUC 2.5128, tail 0.8856</title></circle>
<circle cx="1018.5" cy="245.7" r="4.5" fill="#eb6834" fill-opacity="0.85" stroke="#fcfcfb" stroke-width="1.6"><title>Schedule seed 202: AUC 2.5079, tail 0.8860</title></circle>
<circle cx="1040.1" cy="244.9" r="4.5" fill="#eb6834" fill-opacity="0.85" stroke="#fcfcfb" stroke-width="1.6"><title>Schedule seed 303: AUC 2.5419, tail 0.8862</title></circle>
<circle cx="1023.8" cy="252.5" r="4.5" fill="#eb6834" fill-opacity="0.85" stroke="#fcfcfb" stroke-width="1.6"><title>Schedule seed 404: AUC 2.5163, tail 0.8847</title></circle>
<circle cx="1046.2" cy="274.6" r="4.5" fill="#eb6834" fill-opacity="0.85" stroke="#fcfcfb" stroke-width="1.6"><title>Schedule seed 505: AUC 2.5516, tail 0.8804</title></circle>
<circle cx="886.5" cy="159.5" r="4.5" fill="#1baf7a" fill-opacity="0.85" stroke="#fcfcfb" stroke-width="1.6"><title>Selection seed 101: AUC 2.2999, tail 0.9029</title></circle>
<circle cx="855.4" cy="162.2" r="4.5" fill="#1baf7a" fill-opacity="0.85" stroke="#fcfcfb" stroke-width="1.6"><title>Selection seed 202: AUC 2.2509, tail 0.9024</title></circle>
<circle cx="885.4" cy="163.2" r="4.5" fill="#1baf7a" fill-opacity="0.85" stroke="#fcfcfb" stroke-width="1.6"><title>Selection seed 303: AUC 2.2982, tail 0.9022</title></circle>
<circle cx="897.9" cy="167.8" r="4.5" fill="#1baf7a" fill-opacity="0.85" stroke="#fcfcfb" stroke-width="1.6"><title>Selection seed 404: AUC 2.3179, tail 0.9013</title></circle>
<circle cx="885.8" cy="158.7" r="4.5" fill="#1baf7a" fill-opacity="0.85" stroke="#fcfcfb" stroke-width="1.6"><title>Selection seed 505: AUC 2.2988, tail 0.9031</title></circle>
<circle cx="903.6" cy="160.5" r="4.5" fill="#eda100" fill-opacity="0.85" stroke="#fcfcfb" stroke-width="1.6"><title>Joint seed 101: AUC 2.3268, tail 0.9027</title></circle>
<circle cx="869.6" cy="154.8" r="4.5" fill="#eda100" fill-opacity="0.85" stroke="#fcfcfb" stroke-width="1.6"><title>Joint seed 202: AUC 2.2733, tail 0.9038</title></circle>
<circle cx="878.9" cy="163.3" r="4.5" fill="#eda100" fill-opacity="0.85" stroke="#fcfcfb" stroke-width="1.6"><title>Joint seed 303: AUC 2.2880, tail 0.9022</title></circle>
<circle cx="897.3" cy="169.7" r="4.5" fill="#eda100" fill-opacity="0.85" stroke="#fcfcfb" stroke-width="1.6"><title>Joint seed 404: AUC 2.3169, tail 0.9009</title></circle>
<circle cx="894.2" cy="162.2" r="4.5" fill="#eda100" fill-opacity="0.85" stroke="#fcfcfb" stroke-width="1.6"><title>Joint seed 505: AUC 2.3121, tail 0.9024</title></circle>
<text x="58.0" y="482.0" text-anchor="start" fill="#52514e" font-size="11" font-weight="normal">Panel b: each dot is one seed's paired difference; the rule is their mean. Panel c: upper-left is better on both outcomes — lower regret and more tail retained.</text>
</svg>
